Coordinates
version=1
nRows=54
nColumns=12
inDegrees=yes

Units are S.I. units (second, meters, Newtons, ...)
Angles are in degrees

endheader
time	SC_y	SC_z	SC_x	AC_y	AC_z	AC_x	GH_y	GH_z	GH_yy	EL_x	PS_y
       0.0              -17.51          9.093          18.45          38.43         -8.717         -8.287         -101.7          63.75         -135.1          92.55          122.3
  0.002727              -17.51          9.094          18.46          38.44         -8.716         -8.283         -101.7          63.75         -135.1          92.55          122.3
  0.005454              -17.52          9.095          18.47          38.44         -8.716         -8.279         -101.7          63.74         -135.1          92.54          122.3
   0.00818              -17.52          9.096          18.47          38.45         -8.716         -8.275         -101.7          63.73         -135.1          92.53          122.3
   0.01091              -17.52          9.097          18.48          38.45         -8.716          -8.27         -101.7          63.73         -135.1          92.53          122.3
   0.01363              -17.52          9.098          18.49          38.46         -8.715         -8.266         -101.7          63.72         -135.1          92.52          122.4
   0.01636              -17.52          9.099           18.5          38.46         -8.715         -8.261         -101.6          63.71         -135.1          92.51          122.4
   0.01909              -17.52          9.101          18.51          38.47         -8.715         -8.255         -101.6          63.71         -135.1           92.5          122.4
   0.02181              -17.53          9.102          18.52          38.47         -8.714         -8.249         -101.6           63.7         -135.1          92.49          122.4
   0.02454              -17.53          9.104          18.53          38.48         -8.714         -8.243         -101.6          63.69         -135.1          92.48          122.4
   0.02727              -17.53          9.105          18.55          38.49         -8.713         -8.236         -101.6          63.68         -135.1          92.47          122.4
   0.02999              -17.53          9.107          18.56          38.49         -8.713         -8.229         -101.6          63.67         -135.2          92.46          122.4
   0.03272              -17.54          9.109          18.57           38.5         -8.712         -8.222         -101.5          63.66         -135.2          92.45          122.4
   0.03545              -17.54          9.111          18.59          38.51         -8.712         -8.213         -101.5          63.64         -135.2          92.44          122.4
   0.03818              -17.54          9.113          18.61          38.52         -8.711         -8.204         -101.5          63.63         -135.2          92.42          122.4
    0.0409              -17.54          9.116          18.62          38.53         -8.711         -8.194         -101.5          63.62         -135.2          92.41          122.4
   0.04363              -17.55          9.118          18.64          38.54          -8.71         -8.184         -101.4           63.6         -135.2          92.39          122.4
   0.04636              -17.55          9.121          18.67          38.55         -8.709         -8.172         -101.4          63.58         -135.2          92.37          122.4
   0.04908              -17.56          9.124          18.69          38.57         -8.708         -8.159         -101.4          63.56         -135.2          92.35          122.4
   0.05181              -17.56          9.128          18.72          38.58         -8.707         -8.145         -101.3          63.54         -135.2          92.33          122.4
   0.05454              -17.57          9.131          18.74          38.59         -8.706          -8.13         -101.3          63.52         -135.2           92.3          122.4
   0.05726              -17.57          9.135          18.78          38.61         -8.705         -8.113         -101.2           63.5         -135.2          92.28          122.4
   0.05999              -17.58           9.14          18.81          38.63         -8.704         -8.094         -101.2          63.47         -135.2          92.25          122.4
   0.06272              -17.58          9.145          18.85          38.65         -8.703         -8.074         -101.1          63.44         -135.2          92.22          122.4
   0.06544              -17.59           9.15          18.89          38.68         -8.701         -8.051         -101.1          63.41         -135.3          92.18          122.4
   0.06817               -17.6          9.157          18.94           38.7         -8.699         -8.025         -101.0          63.37         -135.3          92.14          122.4
    0.0709              -17.61          9.164          18.99          38.73         -8.698         -7.997         -100.9          63.33         -135.3          92.09          122.4
   0.07362              -17.62          9.171          19.05          38.76         -8.695         -7.965         -100.8          63.28         -135.3          92.04          122.4
   0.07635              -17.63           9.18          19.12           38.8         -8.693         -7.928         -100.7          63.23         -135.3          91.98          122.5
   0.07908              -17.65           9.19           19.2          38.84          -8.69         -7.887         -100.6          63.16         -135.4          91.92          122.5
    0.0818              -17.66          9.202          19.29          38.89         -8.687          -7.84         -100.5           63.1         -135.4          91.84          122.5
   0.08453              -17.68          9.215          19.39          38.95         -8.684         -7.785         -100.3          63.02         -135.4          91.76          122.5
   0.08726               -17.7           9.23          19.51          39.01         -8.679         -7.723         -100.1          62.92         -135.5          91.66          122.5
   0.08998              -17.73          9.248          19.64          39.08         -8.675          -7.65         -99.92          62.82         -135.5          91.55          122.5
   0.09271              -17.76          9.268           19.8          39.17         -8.669         -7.565         -99.68          62.69         -135.6          91.41          122.6
   0.09544              -17.79          9.293          19.99          39.27         -8.662         -7.465         -99.39          62.55         -135.6          91.25          122.6
   0.09817              -17.83          9.322          20.21           39.4         -8.655         -7.346         -99.06          62.37         -135.7          91.06          122.6
    0.1009              -17.88          9.356          20.48          39.54         -8.645         -7.203         -98.65          62.16         -135.8          90.84          122.7
    0.1036              -17.93          9.398           20.8          39.72         -8.634         -7.031         -98.16          61.91         -135.9          90.56          122.7
    0.1063              -18.01           9.45           21.2          39.93          -8.62          -6.82         -97.56           61.6         -136.0          90.23          122.8
    0.1091              -18.09          9.513          21.68           40.2         -8.602          -6.56         -96.83          61.22         -136.2          89.82          122.9
    0.1118               -18.2          9.592          22.29          40.53         -8.581         -6.235         -95.91          60.74         -136.4           89.3          123.0
    0.1145              -18.34          9.691          23.06          40.95         -8.554         -5.826         -94.75          60.14         -136.7          88.66          123.1
    0.1173              -18.51          9.818          24.03          41.48          -8.52         -5.306         -93.27          59.38         -137.0          87.84          123.3
      0.12              -18.74          9.979          25.27          42.16         -8.476         -4.641         -91.39           58.4         -137.4          86.78          123.5
    0.1227              -19.02          10.19          26.87          43.03         -8.419         -3.787         -88.97          57.15         -138.0          85.43          123.7
    0.1254              -19.39          10.45          28.91          44.14         -8.347         -2.697         -85.88          55.55         -138.7           83.7          124.1
    0.1282              -19.85          10.79          31.48          45.54         -8.256         -1.325         -81.99          53.54         -139.5          81.53          124.5
    0.1309              -20.41          11.19          34.61          47.25         -8.146         0.3456         -77.25          51.09         -140.6          78.89          125.0
    0.1336              -21.06          11.66          38.23          49.23         -8.018          2.283         -71.76          48.25         -141.8          75.82          125.6
    0.1363              -21.76          12.17          42.16          51.37         -7.879           4.38         -65.82          45.17         -143.2           72.5          126.2
    0.1391              -22.46          12.68          46.09          53.51          -7.74          6.477         -59.87           42.1         -144.5          69.18          126.9
    0.1418              -23.11          13.15          49.71          55.49         -7.612          8.414         -54.38          39.26         -145.7          66.12          127.4
    0.1445              -23.67          13.56          52.84           57.2         -7.501          10.09         -49.65          36.81         -146.8          63.47          128.0
